<svg width="460" height="460" viewBox="0 0 460 460" fill="none" xmlns="http://www.w3.org/2000/svg">
<rect width="460" height="460" fill="#38C4E8"/>
<path fill-rule="evenodd" clip-rule="evenodd" d="M366.25 185.068C348.266 185.988 334.624 195.095 327.911 210.664C316.352 237.466 331.645 266.091 360.167 271.042C389.8 276.186 414.398 256.878 414.394 228.475C414.391 206.922 401.026 190.501 379.75 185.911C376.463 185.202 370.687 184.841 366.25 185.068ZM46 187.108C46 187.136 46.943 189.93 48.096 193.317C49.249 196.704 50.942 201.688 51.859 204.392C52.776 207.096 54.089 210.959 54.777 212.975C55.466 214.992 56.728 218.705 57.583 221.225C58.438 223.746 60.389 229.484 61.918 233.975C67.774 251.174 70.055 257.879 70.719 259.847C71.534 262.261 71.489 262.275 72.502 259.269C72.927 258.007 75.135 251.442 77.409 244.68L81.545 232.385L81.207 231.347C80.361 228.741 77.622 220.232 75.75 214.392C74.618 210.863 73.344 206.888 72.918 205.559C71.998 202.689 67.595 188.986 67.229 187.85L66.973 187.059H56.487C50.719 187.059 46 187.081 46 187.108ZM103.925 187.267C103.89 187.382 103.746 187.813 103.606 188.225C103.466 188.638 102.629 191.225 101.746 193.975C100.864 196.725 100.039 199.275 99.913 199.642C99.787 200.009 98.962 202.559 98.08 205.309C97.197 208.059 96.372 210.609 96.245 210.975C96.118 211.342 95.293 213.892 94.412 216.642C93.53 219.392 92.705 221.942 92.578 222.309C92.452 222.675 91.627 225.225 90.745 227.975C89.863 230.725 89.039 233.275 88.913 233.642C88.699 234.262 87.457 238.105 83.416 250.642C82.53 253.392 81.366 256.992 80.83 258.642C77.348 269.361 76.016 273.516 75.97 273.809C75.917 274.138 76.01 274.142 84.317 274.142H92.716L92.957 273.475C93.089 273.109 93.522 271.871 93.918 270.725C96.429 263.47 97.343 260.821 97.743 259.642C97.992 258.909 98.409 257.709 98.67 256.975C98.93 256.242 99.491 254.629 99.916 253.392C100.341 252.154 101.054 250.092 101.5 248.809C101.946 247.525 103.072 244.263 104.004 241.559C104.935 238.854 106.294 234.917 107.024 232.809C107.753 230.7 108.607 228.225 108.921 227.309C109.235 226.392 109.786 224.782 110.146 223.731C110.928 221.448 110.996 221.401 111.404 222.85C111.736 224.03 112.052 225.097 112.844 227.725C114.064 231.773 117.551 243.432 117.853 244.475C118.039 245.117 118.255 245.83 118.333 246.059C118.411 246.288 118.628 247 118.814 247.642C119.195 248.954 122.035 258.5 122.446 259.85C122.887 261.3 122.569 262.04 126.304 250.892C127.67 246.813 129.629 240.989 130.656 237.95L132.525 232.425L130.253 225.367C129.003 221.485 127.654 217.296 127.255 216.059C126.581 213.967 124.582 207.735 123.218 203.475C122.896 202.467 122.194 200.292 121.66 198.642C121.125 196.992 120.068 193.711 119.31 191.35L117.932 187.059H110.961C105.529 187.059 103.975 187.105 103.925 187.267ZM154.947 187.184C154.907 187.252 154.11 189.671 153.175 192.559C149.321 204.46 147.714 209.428 145.974 214.809C144.967 217.925 143.74 221.713 143.249 223.225C141.746 227.85 136.795 243.155 134.92 248.975C133.946 252 132.973 255 132.76 255.642C132.546 256.284 132.107 257.634 131.784 258.642C130.831 261.617 127.503 271.894 127.154 272.934C126.978 273.462 126.833 273.968 126.833 274.059C126.833 274.168 130.22 274.225 136.583 274.225C141.946 274.225 146.333 274.2 146.333 274.169C146.333 274.138 147.201 271.569 148.261 268.461C149.322 265.352 152.105 257.184 154.445 250.309C156.785 243.434 159.262 236.159 159.949 234.142C160.635 232.125 161.895 228.413 162.749 225.892C163.602 223.371 165.362 218.196 166.661 214.392C167.959 210.588 169.237 206.838 169.5 206.059C170.192 204.012 174.21 192.195 175.088 189.627C175.498 188.426 175.833 187.358 175.833 187.252C175.833 187.031 155.075 186.963 154.947 187.184ZM204.253 187.661C204.114 187.994 204 188.308 204 188.359C204 188.41 203.408 190.257 202.685 192.464C201.962 194.67 200.831 198.163 200.171 200.225C199.512 202.288 198.798 204.5 198.585 205.142C198.373 205.784 197.437 208.671 196.506 211.559C195.575 214.446 194.747 216.996 194.667 217.225C194.586 217.455 193.797 219.892 192.913 222.642C192.03 225.392 190.83 229.104 190.246 230.892C189.663 232.68 188.911 235.004 188.576 236.059C188.24 237.113 187.792 238.5 187.581 239.142C187.102 240.593 185.478 245.606 184.341 249.142C183.869 250.609 183.154 252.821 182.751 254.059C182.348 255.296 181.57 257.696 181.022 259.392C180.474 261.088 179.195 265.044 178.179 268.183C177.164 271.322 176.333 273.966 176.333 274.059C176.333 274.172 179.148 274.214 184.76 274.185L193.187 274.142L194.161 271.309C195.382 267.76 197.884 260.52 199.662 255.392C200.409 253.238 201.236 250.838 201.5 250.059C201.764 249.279 202.217 247.967 202.507 247.142C203.456 244.443 205.696 237.99 205.92 237.309C206.041 236.942 206.865 234.542 207.752 231.975C208.638 229.409 209.775 226.109 210.279 224.642C211.203 221.947 211.427 221.472 211.564 221.906C211.605 222.036 212.889 226.342 214.417 231.475C215.945 236.609 217.414 241.529 217.681 242.41C217.948 243.291 218.167 244.06 218.167 244.119C218.167 244.177 216.901 244.225 215.354 244.225C212.179 244.225 212.365 244.149 211.931 245.642C211.771 246.192 211.577 246.83 211.5 247.059C211.422 247.288 211.096 248.338 210.776 249.392C210.169 251.384 208.328 257.395 207.908 258.757C207.775 259.186 207.667 259.617 207.667 259.713C207.667 259.833 210.095 259.902 215.29 259.932L222.913 259.975L224.788 266.225C225.819 269.663 226.778 272.869 226.919 273.35L227.176 274.225H236.755C242.023 274.225 246.333 274.178 246.333 274.121C246.333 274.063 245.738 272.169 245.011 269.912C240.671 256.451 238.646 250.154 237.417 246.309C236.086 242.141 234.655 237.685 231.609 228.225C230.827 225.796 229.887 222.871 229.521 221.725C228.769 219.375 227.57 215.641 226.417 212.059C225.989 210.729 225.277 208.517 224.836 207.142C224.395 205.767 223.682 203.554 223.253 202.225C221.366 196.378 220.941 195.054 220.498 193.642C220.24 192.817 219.663 191.017 219.216 189.642L218.403 187.142L211.455 187.099L204.506 187.055L204.253 187.661ZM246.582 187.434C246.532 187.64 246.512 191.446 246.537 195.892L246.583 203.975L258.583 204.059L270.583 204.142L270.625 239.184L270.667 274.225H280.75H290.833L290.875 239.184L290.917 204.142L302.875 204.099L314.833 204.056V195.558V187.059H280.753H246.673L246.582 187.434ZM374 203.139C387.045 205.629 394.574 214.927 394.581 228.559C394.589 242.355 386.518 251.875 373.167 253.819C354.745 256.5 340.613 241.244 344.321 222.681C347.031 209.119 360.131 200.492 374 203.139Z" fill="white"/>
</svg>
